<?xml version="1.0" encoding="utf-8"?>
<!-- Generator: Adobe Illustrator 26.0.1, SVG Export Plug-In . SVG Version: 6.00 Build 0)  -->
<svg version="1.1" id="Layer_1" xmlns="http://www.w3.org/2000/svg" xmlns:xlink="http://www.w3.org/1999/xlink" x="0px" y="0px"
	 width="42.4px" height="42.4px" viewBox="0 0 42.4 42.4" style="enable-background:new 0 0 42.4 42.4;" xml:space="preserve">
<style type="text/css">
	.st0{fill:#FAFAFA;}
	.st1{fill:#FFFFFF;}
	.st2{fill:#686868;}
</style>
<g>
	<g>
		<circle class="st0" cx="21.2" cy="21.2" r="20.2"/>
		<path class="st1" d="M21.2,42.4C9.5,42.4,0,32.9,0,21.2S9.5,0,21.2,0s21.2,9.5,21.2,21.2l0,0C42.4,32.9,32.9,42.4,21.2,42.4z
			 M21.2,2C10.6,2,2,10.6,2,21.2s8.6,19.2,19.2,19.2s19.2-8.6,19.2-19.2l0,0C40.4,10.6,31.8,2,21.2,2z"/>
	</g>
	<g>
		<path class="st2" d="M22.3,27.8V15c0-0.4,0.1-0.7,0.3-1c0.2-0.2,0.4-0.3,0.7-0.2c0.6,0.2,0.9,0.7,0.9,1.7v6.9
			c0.6,0.3,1.4,0.5,2.1,0.5c0.6,0,1.1-0.2,1.6-0.5c1-0.7,1.5-1.9,1.5-3.7c0.1-1.5-0.3-3.1-1.2-4.3c-1.1-1.2-2.5-2.1-4.1-2.6
			c-1.3-0.4-2.5-0.8-3.6-1.1s-2-0.5-2.9-0.7v12.2l0,0v2.7l0,0v1.7l0,0v2.5l0,0v1.5l4.7,1.5v-3.6l0,0V27.8z"/>
		<path class="st2" d="M17.3,26.8l-1.7,0.6l-0.9,0.4l-1.6,0.3l-1.5-0.2c-0.3-0.2-0.4-0.4-0.2-0.6s0.2-0.1,0.3-0.2s0.3-0.1,0.4-0.2
			l1.1-0.4l4.1-1.5v-2.7l-1.7,0.5l-5.5,2l-1,0.4c-1.5,0.6-2.2,1.2-2.2,1.8c0.1,0.8,1,1.5,2.7,1.9c1.4,0.4,2.9,0.5,4.3,0.5
			c1.1,0,2.2-0.1,3.3-0.3v-2.3C17.2,26.8,17.3,26.8,17.3,26.8z"/>
		<path class="st2" d="M33.1,24.5c-0.8-0.3-1.6-0.5-2.5-0.6c-0.8-0.1-1.7-0.2-2.5-0.1c-0.9,0.1-1.9,0.2-2.8,0.3
			c-0.9,0.2-1.8,0.5-2.6,0.8v2.8l3.9-1.4l1.6-0.5l1.1-0.3h1.4c0.3,0.1,0.6,0.2,0.7,0.4s-0.2,0.4-0.8,0.6L29.2,27l-6.5,2.4v2.7
			l3.5-1.3l6.4-2.3l0.7-0.4c1.5-0.5,2.2-1.2,2.2-1.9S34.7,25,33.1,24.5z"/>
	</g>
</g>
</svg>
